<?xml version="1.0" standalone="no"?>
<!DOCTYPE svg PUBLIC "-//W3C//DTD SVG 20010904//EN"
 "http://www.w3.org/TR/2001/REC-SVG-20010904/DTD/svg10.dtd">
<svg version="1.0" xmlns="http://www.w3.org/2000/svg"
 width="128.000000pt" height="128.000000pt" viewBox="0 0 128.000000 128.000000"
 preserveAspectRatio="xMidYMid meet">
<metadata>
Created by potrace 1.14, written by Peter Selinger 2001-2017
</metadata>
<g transform="translate(0.000000,128.000000) scale(0.100000,-0.100000)"
fill="#000000" stroke="none">
<path d="M562 1248 c-203 -27 -374 -167 -443 -364 -26 -75 -35 -212 -20 -284
12 -54 11 -55 -15 -74 -45 -33 -52 -66 -50 -246 1 -180 6 -200 62 -237 24 -16
72 -17 544 -17 470 0 520 2 544 17 56 37 61 57 62 237 2 179 -5 213 -49 246
-25 18 -26 21 -16 64 6 25 9 88 6 140 -5 109 -28 180 -89 278 -108 170 -324
267 -536 240z"/>
</g>
</svg>
